<svg width="75" height="75" viewBox="0 0 75 75" fill="none" xmlns="http://www.w3.org/2000/svg">
<path d="M51.0834 65.9268C48.792 65.9098 46.5105 65.6221 44.2865 65.0699C36.6064 63.2168 28.6977 58.5161 22.0209 51.8335C15.3442 45.1509 10.6376 37.2408 8.7846 29.5679C6.83342 21.4966 8.22503 14.5913 12.6987 10.1177L13.976 8.84036C15.1349 7.68376 16.7054 7.03418 18.3427 7.03418C19.98 7.03418 21.5505 7.68376 22.7094 8.84036L30.0497 16.1792C31.2071 17.3378 31.8571 18.9084 31.8571 20.5459C31.8571 22.1835 31.2071 23.7541 30.0497 24.9126L25.7138 29.2471C27.7924 32.8946 30.6196 36.545 33.9609 39.8863C37.3022 43.2276 40.9555 46.0562 44.6015 48.1348L48.936 43.7989C49.5093 43.2253 50.1901 42.7703 50.9393 42.4599C51.6886 42.1494 52.4916 41.9896 53.3027 41.9896C54.1137 41.9896 54.9167 42.1494 55.666 42.4599C56.4152 42.7703 57.096 43.2253 57.6694 43.7989L65.0082 51.1377C66.1658 52.2958 66.8161 53.8662 66.8161 55.5037C66.8161 57.1411 66.1658 58.7116 65.0082 59.8697L63.7294 61.147C60.5756 64.3067 56.2104 65.9268 51.0834 65.9268ZM18.3427 11.4258C18.1088 11.4247 17.8771 11.4702 17.661 11.5597C17.4449 11.6493 17.2489 11.781 17.0844 11.9473L15.8056 13.2246C12.4555 16.5747 11.477 22.0137 13.0502 28.5308C14.7157 35.4346 19.0033 42.6079 25.122 48.7251C31.2407 54.8423 38.4125 59.1255 45.3178 60.7969C51.8364 62.3701 57.2724 61.3916 60.6225 58.0415L61.8998 56.7642C62.2336 56.4302 62.421 55.9773 62.421 55.5052C62.421 55.033 62.2336 54.5801 61.8998 54.2461L54.5624 46.9073C54.2284 46.5735 53.7756 46.386 53.3034 46.386C52.8312 46.386 52.3784 46.5735 52.0444 46.9073L46.5497 52.4019C46.22 52.7318 45.7939 52.9482 45.3331 53.0198C44.8722 53.0914 44.4005 53.0146 43.9863 52.8003C39.4819 50.4712 34.9408 47.0801 30.8539 42.9932C26.767 38.9063 23.3832 34.3682 21.0483 29.8638C20.8338 29.4497 20.7567 28.9781 20.8281 28.5172C20.8995 28.0564 21.1156 27.6302 21.4452 27.3003L26.9413 21.8057C27.2751 21.4717 27.4625 21.0188 27.4625 20.5467C27.4625 20.0745 27.2751 19.6216 26.9413 19.2876L19.6025 11.9473C19.4375 11.7813 19.2411 11.6498 19.0249 11.5602C18.8086 11.4707 18.5767 11.425 18.3427 11.4258Z" fill="black"/>
<path d="M53.4302 39.5112C52.8474 39.5112 52.2885 39.2797 51.8765 38.8677C51.4644 38.4556 51.2329 37.8967 51.2329 37.314C51.2286 33.4593 49.6956 29.7636 46.97 27.0378C44.2445 24.312 40.549 22.7786 36.6943 22.7739C36.1116 22.7739 35.5527 22.5424 35.1406 22.1304C34.7286 21.7183 34.4971 21.1594 34.4971 20.5767C34.4971 19.9939 34.7286 19.435 35.1406 19.023C35.5527 18.6109 36.1116 18.3794 36.6943 18.3794C47.1343 18.3794 55.6274 26.8755 55.6274 37.314C55.6274 37.8967 55.3959 38.4556 54.9839 38.8677C54.5718 39.2797 54.0129 39.5112 53.4302 39.5112Z" fill="black"/>
<path d="M62.7173 39.5112C62.1345 39.5112 61.5756 39.2797 61.1636 38.8677C60.7515 38.4556 60.52 37.8967 60.52 37.314C60.52 24.1758 49.8267 13.4868 36.6943 13.4868C36.1116 13.4868 35.5527 13.2553 35.1406 12.8433C34.7286 12.4312 34.4971 11.8723 34.4971 11.2896C34.4971 10.7068 34.7286 10.1479 35.1406 9.73585C35.5527 9.32378 36.1116 9.09229 36.6943 9.09229C52.2554 9.09229 64.9145 21.7529 64.9145 37.314C64.9145 37.8967 64.683 38.4556 64.271 38.8677C63.8589 39.2797 63.3 39.5112 62.7173 39.5112Z" fill="black"/>
</svg>
